# xmcd
#
# Track frame offsets:
#	150
#	15195
#	33787
#	53755
#	68575
#	80220
#	97360
#	112957
#	129617
#	145460
#	162625
#	179785
#	194252
#	213737
#	233362
#
# Disc length: 3363 seconds
#
# Revision: 0
# Processed by: cddbd v1.5.2PL0 Copyright (c) Steve Scherf et al.
# Submitted via: audiograbber 1.83.01
#
DISCID=d60d210f
DTITLE=Compilation - SC8285
DYEAR=1900
DGENRE=Country
TTITLE0=Neil McCoy - Then You Can Tell Me Goodbye
TTITLE1=Ricky Scaggs - Cat's In The Cradle
TTITLE2=Don Cox - Man Overboard
TTITLE3=Alabama - Say I
TTITLE4=Lari White - Wild At heart
TTITLE5=Tracy lawerence - Stars Over Texas
TTITLE6=Toby Keith - Closin' Time At Home
TTITLE7=Lee Roy Parnell - Givin' Water To A Drowning Man
TTITLE8=Tracy Byrd - 4 to 1 In Atlanta
TTITLE9=It Must Be Love - Highway 101 and Paulette Carlson
TTITLE10=Fifty Fifty - Keith Stegall
TTITLE11=Maybe - Mandy barnette
TTITLE12=What Else Can I Do - Patricia Conroy
TTITLE13=Circus Leaving Town - Philip Claypool
TTITLE14=Paul Overstreet - Even When I Don't Feel Like It
EXTD=
EXTT0=
EXTT1=
EXTT2=
EXTT3=
EXTT4=
EXTT5=
EXTT6=
EXTT7=
EXTT8=
EXTT9=
EXTT10=
EXTT11=
EXTT12=
EXTT13=
EXTT14=
PLAYORDER=
